<svg xmlns="http://www.w3.org/2000/svg" viewBox="0 0 759.17 269.01"><defs><style>.cls-1{fill:#ffffff;}</style></defs><g id="Capa_2" data-name="Capa 2"><g id="Capa_1-2" data-name="Capa 1"><path class="cls-1" d="M328.43,98.59a14.86,14.86,0,0,0,14.86-14.86h0V43.16a25.94,25.94,0,0,1,51.87,0V83.73a14.86,14.86,0,0,0,29.72,0V66.16A25.69,25.69,0,0,1,442.29,42,67.77,67.77,0,0,0,316.23,91.74,14.62,14.62,0,0,0,328.43,98.59Z"/><path class="cls-1" d="M436,66.16V83.73a25.94,25.94,0,1,1-51.87,0V43.16a14.86,14.86,0,1,0-29.72,0h0V83.73a25.93,25.93,0,0,1-25.93,25.94c-.85,0-1.56-.41-2.38-.48A67.53,67.53,0,0,0,445.52,52.37,14.77,14.77,0,0,0,436,66.16Z"/><path class="cls-1" d="M0,237.9v-8.16a36.69,36.69,0,0,1,2.86-10q4.32-10.61,11.62-15.58t12.11-4.94a15.51,15.51,0,0,1,7.68,2.36l-4.53,7.3q-5.74-2.1-11.41,3.4a29.87,29.87,0,0,0-7.82,12c-1.06,3.84-1.6,11-1.6,21.57v22.94H0Z"/><path class="cls-1" d="M40.51,199.5h8.78v31.66c0,7.74.42,13.06,1.23,16A17.74,17.74,0,0,0,57.63,257a21.69,21.69,0,0,0,12.62,3.63,21.07,21.07,0,0,0,12.37-3.52,18.1,18.1,0,0,0,7-9.28Q91,243.9,91,231.16V199.5h8.91v33.33q0,14.05-3.32,21.11A25.19,25.19,0,0,1,86.69,265q-6.54,4-16.44,4t-16.58-4a24.76,24.76,0,0,1-9.89-11.21q-3.28-7.19-3.27-21.67Z"/><path class="cls-1" d="M108.45,242.66V231.83q1.13-13.83,5.82-20.27a28.5,28.5,0,0,1,10.2-9.33c2.78-1.77,6.7-2.73,11.81-2.86a29.28,29.28,0,0,1,10,1.86,19.06,19.06,0,0,1,7.84,4.94,37.67,37.67,0,0,1,5.64,9.29c1-2.65,3.19-5.74,6.48-9.29a33.63,33.63,0,0,1,6.26-4c1.73-1.13,5.74-2,12.06-2.8a27.89,27.89,0,0,1,13.53,3.53,19.58,19.58,0,0,1,9.12,9.93q2.63,6.38,2.63,19.06v37.05H201V231.89c0-7.24-.52-12.24-1.54-14.95a13.43,13.43,0,0,0-5.32-6.59,16.09,16.09,0,0,0-9.1-2.51q-10,.69-17.12,9.72-2.79,3.83-4.19,17v34.38H155V234.19q0-12.24-2.73-16.67a23.65,23.65,0,0,0-6.49-7.05,16.11,16.11,0,0,0-9.41-2.63A17.56,17.56,0,0,0,125.93,211a20.05,20.05,0,0,0-6.84,9.24c-1.65,4.09-2.29,10.76-2,20v28.75h-8.66Z"/><path class="cls-1" d="M225.43,255.78a46.79,46.79,0,0,1-6.68-18.26V173.28h8.66v37.84a36.62,36.62,0,0,1,12.3-10,33.59,33.59,0,0,1,14.9-3.31,33.05,33.05,0,0,1,24.55,10.45,34.92,34.92,0,0,1,10.2,25.34,34.31,34.31,0,0,1-10.27,25.05A33.46,33.46,0,0,1,254.38,269a38.21,38.21,0,0,1-15.56-3.19A39,39,0,0,1,225.43,255.78Zm28.2,4.88A26.14,26.14,0,0,0,267.14,257,26.8,26.8,0,0,0,277,247a27.67,27.67,0,0,0-.05-27.49A26.7,26.7,0,0,0,267,209.3a25.92,25.92,0,0,0-13.27-3.61,27.21,27.21,0,0,0-13.6,3.61,25.38,25.38,0,0,0-9.91,9.83A28.28,28.28,0,0,0,226.78,233a27,27,0,0,0,7.8,19.71A25.71,25.71,0,0,0,253.63,260.66Z"/><path class="cls-1" d="M298.63,174.89h8.79v94.05h-8.79Z"/><path class="cls-1" d="M379.26,244.82l7.3,3.91a37.83,37.83,0,0,1-8.28,11.43,33.49,33.49,0,0,1-10.7,6.59A37.6,37.6,0,0,1,354.17,269q-16.57,0-25.91-10.85a36.57,36.57,0,0,1-9.34-24.53,36.16,36.16,0,0,1,7.93-23q10-12.87,26.88-12.87c11.52,0,20.71,4.4,27.64,13.18q7.35,9.26,7.43,23.11H327.89c.17,7.93,2.69,14.39,7.55,19.44a23.9,23.9,0,0,0,18,7.59,28.86,28.86,0,0,0,10.09-1.83,26.72,26.72,0,0,0,8.31-4.8C374.11,252.5,376.59,249.27,379.26,244.82Zm0-18.25a28.52,28.52,0,0,0-5.07-11.16,24.11,24.11,0,0,0-8.84-6.73,27,27,0,0,0-11.56-2.57,24.73,24.73,0,0,0-17.12,6.45q-5.19,4.69-7.84,14Z"/><path class="cls-1" d="M464.61,206.92l-5.57,5.8c-4.69-4.52-9.26-6.8-13.66-6.8a10.38,10.38,0,0,0-7.3,2.8,8.63,8.63,0,0,0-3,6.61,9.35,9.35,0,0,0,2.53,6.17q2.46,3.17,10.45,7.24c6.53,3.34,10.93,6.57,13.24,9.72a18.06,18.06,0,0,1,3.4,10.68,19.13,19.13,0,0,1-5.84,14.08A20,20,0,0,1,444.21,269,26.19,26.19,0,0,1,433,266.5a23.58,23.58,0,0,1-8.81-7l5.51-6.24c4.44,5,9.18,7.55,14.16,7.55a12.58,12.58,0,0,0,8.87-3.38,10.33,10.33,0,0,0,3.67-7.88,10.17,10.17,0,0,0-2.4-6.68c-1.6-1.94-5.26-4.36-11-7.3q-9.19-4.62-12.49-9.32a17.48,17.48,0,0,1-3.34-10.51,17.06,17.06,0,0,1,5.3-12.83,18.33,18.33,0,0,1,13.26-5.11Q455.08,197.77,464.61,206.92Z"/><path class="cls-1" d="M507.14,266.58A31.37,31.37,0,0,1,495,269q-10-.57-15.83-10.39a26,26,0,0,1-3.4-13.6V174.57h8.78v32.79h16.12v7.47H484.63v28.7q-.37,10.64,7.18,16.38a13.33,13.33,0,0,0,12.6-.55C505.53,262.45,506.43,264.85,507.14,266.58Z"/><path class="cls-1" d="M515.11,199.5h8.78v31.66c0,7.74.42,13.06,1.23,16a17.76,17.76,0,0,0,7.12,9.84,21.67,21.67,0,0,0,12.62,3.63,21.07,21.07,0,0,0,12.37-3.52,18.08,18.08,0,0,0,7-9.28q1.35-3.89,1.36-16.63V199.5h8.91v33.33q0,14.05-3.32,21.11A25.21,25.21,0,0,1,561.29,265q-6.54,4-16.43,4t-16.59-4a24.74,24.74,0,0,1-9.88-11.21q-3.28-7.19-3.28-21.67Z"/><path class="cls-1" d="M634.2,265.81A38.11,38.11,0,0,1,618.66,269a33.48,33.48,0,0,1-24.74-10.39,34.34,34.34,0,0,1-10.26-25.05,34.92,34.92,0,0,1,10.2-25.34,33.07,33.07,0,0,1,24.55-10.45,33.49,33.49,0,0,1,14.89,3.31,36.36,36.36,0,0,1,12.31,10V173.28h8.65v64.24a46.6,46.6,0,0,1-6.67,18.26A38.73,38.73,0,0,1,634.2,265.81Zm4.23-13.08c5.22-5.28,7.8-11.85,7.8-19.71a28,28,0,0,0-3.46-13.89,25.4,25.4,0,0,0-9.89-9.83,27.24,27.24,0,0,0-13.6-3.61A25.78,25.78,0,0,0,606,209.3a26.63,26.63,0,0,0-9.91,10.2,28,28,0,0,0-3.67,13.77A27.3,27.3,0,0,0,596.09,247a26.63,26.63,0,0,0,9.8,10,26,26,0,0,0,13.5,3.63A25.67,25.67,0,0,0,638.43,252.73Z"/><path class="cls-1" d="M673.75,173.22a7,7,0,0,1,5.09,2.1,6.86,6.86,0,0,1,2.13,5.07,7.27,7.27,0,0,1-7.22,7.24,6.86,6.86,0,0,1-5.07-2.13,7,7,0,0,1-2.1-5.11,6.83,6.83,0,0,1,2.1-5.07A7,7,0,0,1,673.75,173.22Zm-4.34,27.89h8.72v67.83h-8.72Z"/><path class="cls-1" d="M723.85,197.77a33.64,33.64,0,0,1,26,11.32,36.38,36.38,0,0,1-.56,49.31Q739.38,269,723.85,269t-25.44-10.6a36.36,36.36,0,0,1-.53-49.24A33.55,33.55,0,0,1,723.85,197.77Zm0,8.53a25,25,0,0,0-18.6,8,26.82,26.82,0,0,0-7.8,19.4A27.82,27.82,0,0,0,701,247.52a24.78,24.78,0,0,0,9.62,9.82,27.33,27.33,0,0,0,26.55,0,24.81,24.81,0,0,0,9.55-9.82,28.22,28.22,0,0,0,3.53-13.77,26.86,26.86,0,0,0-7.8-19.4A25,25,0,0,0,723.85,206.3Z"/></g></g></svg>