<svg width="1114" height="399" viewBox="0 0 1114 399" fill="none" style="background-color:black" xmlns="http://www.w3.org/2000/svg">
<g clip-path="url(#clip0)">
<rect width="1114" height="399" fill="#C4C4C4" fill-opacity="0.1"/>
<path d="M355.579 -225.587C347.26 -223.304 339.912 -218.369 334.652 -211.531C329.392 -204.694 326.506 -196.327 326.433 -187.701V-140.489C324.842 -123.115 316.815 -106.964 303.928 -95.2032C291.04 -83.4429 274.222 -76.923 256.775 -76.923C239.327 -76.923 222.509 -83.4429 209.622 -95.2032C196.734 -106.964 188.707 -123.115 187.116 -140.489V-248.319C187.116 -258.367 183.124 -268.003 176.019 -275.108C168.913 -282.213 159.275 -286.205 149.227 -286.205C139.178 -286.205 129.54 -282.213 122.434 -275.108C115.329 -268.003 111.337 -258.367 111.337 -248.319V-140.489C110.732 -122.5 103.157 -105.451 90.2134 -92.9432C77.2695 -80.4356 59.9701 -73.4488 41.9697 -73.459H34.9746C57.7545 -42.6712 89.7011 -19.8886 126.232 -8.37927C162.763 3.13005 202 2.77468 238.316 -9.39437C274.633 -21.5634 306.161 -44.9209 328.38 -76.1162C350.598 -107.312 362.365 -144.742 361.991 -183.038C361.334 -197.405 359.186 -211.664 355.579 -225.587Z" fill="url(#paint0_linear)"/>
<path d="M12.2412 -117.757C15.7718 -112.331 20.6143 -107.885 26.3204 -104.828C32.0265 -101.772 38.4116 -100.204 44.8846 -100.271C55.5519 -100.271 65.7824 -104.508 73.3253 -112.05C80.8683 -119.593 85.1059 -129.822 85.1059 -140.489V-248.319C85.1059 -266.096 92.1685 -283.145 104.74 -295.716C117.312 -308.286 134.362 -315.348 152.141 -315.348C169.92 -315.348 186.971 -308.286 199.543 -295.716C212.114 -283.145 219.177 -266.096 219.177 -248.319V-140.489C220.367 -130.582 225.147 -121.455 232.613 -114.833C240.078 -108.212 249.711 -104.556 259.69 -104.556C269.669 -104.556 279.301 -108.212 286.767 -114.833C294.232 -121.455 299.012 -130.582 300.202 -140.489V-190.032C300.364 -204.789 305.269 -219.102 314.191 -230.857C323.113 -242.613 335.58 -251.187 349.75 -255.313C333.123 -293.548 303.899 -324.935 266.946 -344.247C229.992 -363.56 187.537 -369.634 146.65 -361.457C105.762 -353.28 68.9094 -331.346 42.2267 -299.308C15.544 -267.269 0.641418 -227.058 0 -185.369C0.718452 -162.351 4.84361 -139.566 12.2412 -117.757Z" fill="url(#paint1_linear)"/>
<path d="M1097.58 306.413C1089.26 308.696 1081.91 313.631 1076.65 320.469C1071.39 327.306 1068.51 335.673 1068.43 344.299V391.511C1066.84 408.885 1058.82 425.036 1045.93 436.797C1033.04 448.557 1016.22 455.077 998.775 455.077C981.327 455.077 964.509 448.557 951.622 436.797C938.734 425.036 930.707 408.885 929.116 391.511V283.681C929.116 273.633 925.124 263.997 918.019 256.892C910.913 249.787 901.275 245.795 891.227 245.795C881.178 245.795 871.54 249.787 864.434 256.892C857.329 263.997 853.337 273.633 853.337 283.681V391.511C852.732 409.5 845.157 426.549 832.213 439.057C819.27 451.564 801.97 458.551 783.97 458.541H776.975C799.755 489.329 831.701 512.111 868.232 523.621C904.763 535.13 944 534.775 980.316 522.606C1016.63 510.437 1048.16 487.079 1070.38 455.884C1092.6 424.688 1104.36 387.258 1103.99 348.962C1103.33 334.595 1101.19 320.336 1097.58 306.413Z" fill="url(#paint2_linear)"/>
<path d="M754.241 414.243C757.772 419.669 762.614 424.115 768.32 427.172C774.026 430.228 780.412 431.796 786.885 431.729C797.552 431.729 807.782 427.492 815.325 419.95C822.868 412.407 827.106 402.178 827.106 391.511V283.681C827.106 265.904 834.168 248.855 846.74 236.284C859.312 223.714 876.362 216.652 894.141 216.652C911.92 216.652 928.971 223.714 941.543 236.284C954.114 248.855 961.177 265.904 961.177 283.681V391.511C962.367 401.418 967.147 410.545 974.613 417.167C982.078 423.788 991.711 427.444 1001.69 427.444C1011.67 427.444 1021.3 423.788 1028.77 417.167C1036.23 410.545 1041.01 401.418 1042.2 391.511V341.968C1042.36 327.211 1047.27 312.898 1056.19 301.143C1065.11 289.387 1077.58 280.813 1091.75 276.687C1075.12 238.452 1045.9 207.065 1008.95 187.753C971.992 168.44 929.537 162.366 888.65 170.543C847.762 178.72 810.909 200.654 784.227 232.692C757.544 264.731 742.641 304.942 742 346.631C742.718 369.649 746.844 392.434 754.241 414.243Z" fill="url(#paint3_linear)"/>
<path d="M1468.58 173.413C1460.26 175.696 1452.91 180.631 1447.65 187.469C1442.39 194.306 1439.51 202.673 1439.43 211.299V258.511C1437.84 275.885 1429.82 292.036 1416.93 303.797C1404.04 315.557 1387.22 322.077 1369.77 322.077C1352.33 322.077 1335.51 315.557 1322.62 303.797C1309.73 292.036 1301.71 275.885 1300.12 258.511V150.681C1300.12 140.633 1296.12 130.997 1289.02 123.892C1281.91 116.787 1272.28 112.795 1262.23 112.795C1252.18 112.795 1242.54 116.787 1235.43 123.892C1228.33 130.997 1224.34 140.633 1224.34 150.681V258.511C1223.73 276.5 1216.16 293.549 1203.21 306.057C1190.27 318.564 1172.97 325.551 1154.97 325.541H1147.97C1170.75 356.329 1202.7 379.111 1239.23 390.621C1275.76 402.13 1315 401.775 1351.32 389.606C1387.63 377.437 1419.16 354.079 1441.38 322.884C1463.6 291.688 1475.36 254.258 1474.99 215.962C1474.33 201.595 1472.19 187.336 1468.58 173.413Z" fill="url(#paint4_linear)"/>
<path d="M1125.24 281.243C1128.77 286.669 1133.61 291.115 1139.32 294.172C1145.03 297.228 1151.41 298.796 1157.88 298.729C1168.55 298.729 1178.78 294.492 1186.33 286.95C1193.87 279.407 1198.11 269.178 1198.11 258.511V150.681C1198.11 132.904 1205.17 115.855 1217.74 103.284C1230.31 90.7138 1247.36 83.6518 1265.14 83.6518C1282.92 83.6518 1299.97 90.7138 1312.54 103.284C1325.11 115.855 1332.18 132.904 1332.18 150.681V258.511C1333.37 268.418 1338.15 277.545 1345.61 284.167C1353.08 290.788 1362.71 294.444 1372.69 294.444C1382.67 294.444 1392.3 290.788 1399.77 284.167C1407.23 277.545 1412.01 268.418 1413.2 258.511V208.968C1413.36 194.211 1418.27 179.898 1427.19 168.143C1436.11 156.387 1448.58 147.813 1462.75 143.687C1446.12 105.452 1416.9 74.0654 1379.95 54.7527C1342.99 35.4399 1300.54 29.3663 1259.65 37.5431C1218.76 45.7198 1181.91 67.6535 1155.23 99.6925C1128.54 131.731 1113.64 171.942 1113 213.631C1113.72 236.649 1117.84 259.434 1125.24 281.243Z" fill="url(#paint5_linear)"/>
<path d="M726.579 439.413C718.26 441.696 710.912 446.631 705.652 453.469C700.392 460.306 697.506 468.673 697.433 477.299V524.511C695.842 541.885 687.815 558.036 674.928 569.797C662.04 581.557 645.222 588.077 627.775 588.077C610.327 588.077 593.509 581.557 580.622 569.797C567.734 558.036 559.707 541.885 558.116 524.511V416.681C558.116 406.633 554.124 396.997 547.019 389.892C539.913 382.787 530.275 378.795 520.227 378.795C510.178 378.795 500.54 382.787 493.434 389.892C486.329 396.997 482.337 406.633 482.337 416.681V524.511C481.732 542.5 474.157 559.549 461.213 572.057C448.27 584.564 430.97 591.551 412.97 591.541H405.975C428.755 622.329 460.701 645.111 497.232 656.621C533.763 668.13 573 667.775 609.316 655.606C645.633 643.437 677.161 620.079 699.38 588.884C721.598 557.688 733.365 520.258 732.991 481.962C732.334 467.595 730.186 453.336 726.579 439.413Z" fill="url(#paint6_linear)"/>
<path d="M383.241 547.243C386.772 552.669 391.614 557.115 397.32 560.172C403.026 563.228 409.412 564.796 415.885 564.729C426.552 564.729 436.782 560.492 444.325 552.95C451.868 545.407 456.106 535.178 456.106 524.511V416.681C456.106 398.904 463.168 381.855 475.74 369.284C488.312 356.714 505.362 349.652 523.141 349.652C540.92 349.652 557.971 356.714 570.543 369.284C583.114 381.855 590.177 398.904 590.177 416.681V524.511C591.367 534.418 596.147 543.545 603.613 550.167C611.078 556.788 620.711 560.444 630.69 560.444C640.669 560.444 650.301 556.788 657.767 550.167C665.232 543.545 670.012 534.418 671.202 524.511V474.968C671.364 460.211 676.269 445.898 685.191 434.143C694.113 422.387 706.58 413.813 720.75 409.687C704.123 371.452 674.899 340.065 637.946 320.753C600.992 301.44 558.537 295.366 517.65 303.543C476.762 311.72 439.909 333.654 413.227 365.692C386.544 397.731 371.641 437.942 371 479.631C371.718 502.649 375.844 525.434 383.241 547.243Z" fill="url(#paint7_linear)"/>
<path d="M1468.58 -225.587C1460.26 -223.304 1452.91 -218.369 1447.65 -211.531C1442.39 -204.694 1439.51 -196.327 1439.43 -187.701V-140.489C1437.84 -123.115 1429.82 -106.964 1416.93 -95.2032C1404.04 -83.4429 1387.22 -76.923 1369.77 -76.923C1352.33 -76.923 1335.51 -83.4429 1322.62 -95.2032C1309.73 -106.964 1301.71 -123.115 1300.12 -140.489V-248.319C1300.12 -258.367 1296.12 -268.003 1289.02 -275.108C1281.91 -282.213 1272.28 -286.205 1262.23 -286.205C1252.18 -286.205 1242.54 -282.213 1235.43 -275.108C1228.33 -268.003 1224.34 -258.367 1224.34 -248.319V-140.489C1223.73 -122.5 1216.16 -105.451 1203.21 -92.9432C1190.27 -80.4356 1172.97 -73.4488 1154.97 -73.459H1147.97C1170.75 -42.6712 1202.7 -19.8886 1239.23 -8.37927C1275.76 3.13005 1315 2.77468 1351.32 -9.39437C1387.63 -21.5634 1419.16 -44.9209 1441.38 -76.1162C1463.6 -107.312 1475.36 -144.742 1474.99 -183.038C1474.33 -197.405 1472.19 -211.664 1468.58 -225.587Z" fill="url(#paint8_linear)"/>
<path d="M1125.24 -117.757C1128.77 -112.331 1133.61 -107.885 1139.32 -104.828C1145.03 -101.772 1151.41 -100.204 1157.88 -100.271C1168.55 -100.271 1178.78 -104.508 1186.33 -112.05C1193.87 -119.593 1198.11 -129.822 1198.11 -140.489V-248.319C1198.11 -266.096 1205.17 -283.145 1217.74 -295.716C1230.31 -308.286 1247.36 -315.348 1265.14 -315.348C1282.92 -315.348 1299.97 -308.286 1312.54 -295.716C1325.11 -283.145 1332.18 -266.096 1332.18 -248.319V-140.489C1333.37 -130.582 1338.15 -121.455 1345.61 -114.833C1353.08 -108.212 1362.71 -104.556 1372.69 -104.556C1382.67 -104.556 1392.3 -108.212 1399.77 -114.833C1407.23 -121.455 1412.01 -130.582 1413.2 -140.489V-190.032C1413.36 -204.789 1418.27 -219.102 1427.19 -230.857C1436.11 -242.613 1448.58 -251.187 1462.75 -255.313C1446.12 -293.548 1416.9 -324.935 1379.95 -344.247C1342.99 -363.56 1300.54 -369.634 1259.65 -361.457C1218.76 -353.28 1181.91 -331.346 1155.23 -299.308C1128.54 -267.269 1113.64 -227.058 1113 -185.369C1113.72 -162.351 1117.84 -139.566 1125.24 -117.757Z" fill="url(#paint9_linear)"/>
<path d="M726.579 40.413C718.26 42.6962 710.912 47.6311 705.652 54.4687C700.392 61.3063 697.506 69.6731 697.433 78.2993V125.511C695.842 142.885 687.815 159.036 674.928 170.797C662.04 182.557 645.222 189.077 627.775 189.077C610.327 189.077 593.509 182.557 580.622 170.797C567.734 159.036 559.707 142.885 558.116 125.511V17.6813C558.116 7.63321 554.124 -2.00331 547.019 -9.10836C539.913 -16.2134 530.275 -20.205 520.227 -20.205C510.178 -20.205 500.54 -16.2134 493.434 -9.10836C486.329 -2.00331 482.337 7.63321 482.337 17.6813V125.511C481.732 143.5 474.157 160.549 461.213 173.057C448.27 185.564 430.97 192.551 412.97 192.541H405.975C428.755 223.329 460.701 246.111 497.232 257.621C533.763 269.13 573 268.775 609.316 256.606C645.633 244.437 677.161 221.079 699.38 189.884C721.598 158.688 733.365 121.258 732.991 82.9622C732.334 68.5953 730.186 54.3356 726.579 40.413Z" fill="url(#paint10_linear)"/>
<path d="M383.241 148.243C386.772 153.669 391.614 158.115 397.32 161.172C403.026 164.228 409.412 165.796 415.885 165.729C426.552 165.729 436.782 161.492 444.325 153.95C451.868 146.407 456.106 136.178 456.106 125.511V17.6813C456.106 -0.0960015 463.168 -17.1452 475.74 -29.7157C488.312 -42.2862 505.362 -49.3482 523.141 -49.3482C540.92 -49.3482 557.971 -42.2862 570.543 -29.7157C583.114 -17.1452 590.177 -0.0960015 590.177 17.6813V125.511C591.367 135.418 596.147 144.545 603.613 151.167C611.078 157.788 620.711 161.444 630.69 161.444C640.669 161.444 650.301 157.788 657.767 151.167C665.232 144.545 670.012 135.418 671.202 125.511V75.9679C671.364 61.2113 676.269 46.8981 685.191 35.1427C694.113 23.3873 706.58 14.8131 720.75 10.6869C704.123 -27.548 674.899 -58.9346 637.946 -78.2473C600.992 -97.5601 558.537 -103.634 517.65 -95.4569C476.762 -87.2802 439.909 -65.3465 413.227 -33.3075C386.544 -1.2686 371.641 38.9424 371 80.6308C371.718 103.649 375.844 126.434 383.241 148.243Z" fill="url(#paint11_linear)"/>
<path d="M1097.58 -92.587C1089.26 -90.3038 1081.91 -85.3689 1076.65 -78.5313C1071.39 -71.6937 1068.51 -63.3269 1068.43 -54.7007V-7.48857C1066.84 9.88482 1058.82 26.0365 1045.93 37.7968C1033.04 49.5571 1016.22 56.077 998.775 56.077C981.327 56.077 964.509 49.5571 951.622 37.7968C938.734 26.0365 930.707 9.88482 929.116 -7.48857V-115.319C929.116 -125.367 925.124 -135.003 918.019 -142.108C910.913 -149.213 901.275 -153.205 891.227 -153.205C881.178 -153.205 871.54 -149.213 864.434 -142.108C857.329 -135.003 853.337 -125.367 853.337 -115.319V-7.48857C852.732 10.5 845.157 27.5491 832.213 40.0568C819.27 52.5644 801.97 59.5512 783.97 59.541H776.975C799.755 90.3288 831.701 113.111 868.232 124.621C904.763 136.13 944 135.775 980.316 123.606C1016.63 111.437 1048.16 88.0791 1070.38 56.8838C1092.6 25.6884 1104.36 -11.7418 1103.99 -50.0378C1103.33 -64.4047 1101.19 -78.6644 1097.58 -92.587Z" fill="url(#paint12_linear)"/>
<path d="M754.241 15.2432C757.772 20.6685 762.614 25.1154 768.32 28.1719C774.026 31.2285 780.412 32.7959 786.885 32.7292C797.552 32.7292 807.782 28.492 815.325 20.9497C822.868 13.4074 827.106 3.17789 827.106 -7.48851V-115.319C827.106 -133.096 834.168 -150.145 846.74 -162.716C859.312 -175.286 876.362 -182.348 894.141 -182.348C911.92 -182.348 928.971 -175.286 941.543 -162.716C954.114 -150.145 961.177 -133.096 961.177 -115.319V-7.48851C962.367 2.41822 967.147 11.5453 974.613 18.1666C982.078 24.7878 991.711 28.4442 1001.69 28.4442C1011.67 28.4442 1021.3 24.7878 1028.77 18.1666C1036.23 11.5453 1041.01 2.41822 1042.2 -7.48851V-57.0321C1042.36 -71.7887 1047.27 -86.1019 1056.19 -97.8573C1065.11 -109.613 1077.58 -118.187 1091.75 -122.313C1075.12 -160.548 1045.9 -191.935 1008.95 -211.247C971.992 -230.56 929.537 -236.634 888.65 -228.457C847.762 -220.28 810.909 -198.346 784.227 -166.308C757.544 -134.269 742.641 -94.0576 742 -52.3692C742.718 -29.3509 746.844 -6.56601 754.241 15.2432Z" fill="url(#paint13_linear)"/>
<path d="M355.579 173.413C347.26 175.696 339.912 180.631 334.652 187.469C329.392 194.306 326.506 202.673 326.433 211.299V258.511C324.842 275.885 316.815 292.036 303.928 303.797C291.04 315.557 274.222 322.077 256.775 322.077C239.327 322.077 222.509 315.557 209.622 303.797C196.734 292.036 188.707 275.885 187.116 258.511V150.681C187.116 140.633 183.124 130.997 176.019 123.892C168.913 116.787 159.275 112.795 149.227 112.795C139.178 112.795 129.54 116.787 122.434 123.892C115.329 130.997 111.337 140.633 111.337 150.681V258.511C110.732 276.5 103.157 293.549 90.2134 306.057C77.2695 318.564 59.9701 325.551 41.9697 325.541H34.9746C57.7545 356.329 89.7011 379.111 126.232 390.621C162.763 402.13 202 401.775 238.316 389.606C274.633 377.437 306.161 354.079 328.38 322.884C350.598 291.688 362.365 254.258 361.991 215.962C361.334 201.595 359.186 187.336 355.579 173.413Z" fill="url(#paint14_linear)"/>
<path d="M12.2412 281.243C15.7718 286.669 20.6143 291.115 26.3204 294.172C32.0265 297.228 38.4116 298.796 44.8846 298.729C55.5519 298.729 65.7824 294.492 73.3253 286.95C80.8683 279.407 85.1059 269.178 85.1059 258.511V150.681C85.1059 132.904 92.1685 115.855 104.74 103.284C117.312 90.7138 134.362 83.6518 152.141 83.6518C169.92 83.6518 186.971 90.7138 199.543 103.284C212.114 115.855 219.177 132.904 219.177 150.681V258.511C220.367 268.418 225.147 277.545 232.613 284.167C240.078 290.788 249.711 294.444 259.69 294.444C269.669 294.444 279.301 290.788 286.767 284.167C294.232 277.545 299.012 268.418 300.202 258.511V208.968C300.364 194.211 305.269 179.898 314.191 168.143C323.113 156.387 335.58 147.813 349.75 143.687C333.123 105.452 303.899 74.0654 266.946 54.7527C229.992 35.4399 187.537 29.3663 146.65 37.5431C105.762 45.7198 68.9094 67.6535 42.2267 99.6925C15.544 131.731 0.641418 171.942 0 213.631C0.718452 236.649 4.84361 259.434 12.2412 281.243Z" fill="url(#paint15_linear)"/>
</g>
<defs>
<linearGradient id="paint0_linear" x1="288.5" y1="-28.5" x2="7.4715" y2="-445.318" gradientUnits="userSpaceOnUse">
<stop stop-color="white" stop-opacity="0.12"/>
<stop offset="0.776245" stop-color="white" stop-opacity="0"/>
</linearGradient>
<linearGradient id="paint1_linear" x1="288.5" y1="-28.5" x2="7.4715" y2="-445.318" gradientUnits="userSpaceOnUse">
<stop stop-color="white" stop-opacity="0.12"/>
<stop offset="0.776245" stop-color="white" stop-opacity="0"/>
</linearGradient>
<linearGradient id="paint2_linear" x1="1030.5" y1="503.5" x2="749.471" y2="86.6821" gradientUnits="userSpaceOnUse">
<stop stop-color="white" stop-opacity="0.12"/>
<stop offset="0.776245" stop-color="white" stop-opacity="0"/>
</linearGradient>
<linearGradient id="paint3_linear" x1="1030.5" y1="503.5" x2="749.471" y2="86.6821" gradientUnits="userSpaceOnUse">
<stop stop-color="white" stop-opacity="0.12"/>
<stop offset="0.776245" stop-color="white" stop-opacity="0"/>
</linearGradient>
<linearGradient id="paint4_linear" x1="1401.5" y1="370.5" x2="1120.47" y2="-46.3179" gradientUnits="userSpaceOnUse">
<stop stop-color="white" stop-opacity="0.12"/>
<stop offset="0.776245" stop-color="white" stop-opacity="0"/>
</linearGradient>
<linearGradient id="paint5_linear" x1="1401.5" y1="370.5" x2="1120.47" y2="-46.3179" gradientUnits="userSpaceOnUse">
<stop stop-color="white" stop-opacity="0.12"/>
<stop offset="0.776245" stop-color="white" stop-opacity="0"/>
</linearGradient>
<linearGradient id="paint6_linear" x1="659.5" y1="636.5" x2="378.471" y2="219.682" gradientUnits="userSpaceOnUse">
<stop stop-color="white" stop-opacity="0.12"/>
<stop offset="0.776245" stop-color="white" stop-opacity="0"/>
</linearGradient>
<linearGradient id="paint7_linear" x1="659.5" y1="636.5" x2="378.471" y2="219.682" gradientUnits="userSpaceOnUse">
<stop stop-color="white" stop-opacity="0.12"/>
<stop offset="0.776245" stop-color="white" stop-opacity="0"/>
</linearGradient>
<linearGradient id="paint8_linear" x1="1401.5" y1="-28.5" x2="1120.47" y2="-445.318" gradientUnits="userSpaceOnUse">
<stop stop-color="white" stop-opacity="0.12"/>
<stop offset="0.776245" stop-color="white" stop-opacity="0"/>
</linearGradient>
<linearGradient id="paint9_linear" x1="1401.5" y1="-28.5" x2="1120.47" y2="-445.318" gradientUnits="userSpaceOnUse">
<stop stop-color="white" stop-opacity="0.12"/>
<stop offset="0.776245" stop-color="white" stop-opacity="0"/>
</linearGradient>
<linearGradient id="paint10_linear" x1="659.5" y1="237.5" x2="378.471" y2="-179.318" gradientUnits="userSpaceOnUse">
<stop stop-color="white" stop-opacity="0.12"/>
<stop offset="0.776245" stop-color="white" stop-opacity="0"/>
</linearGradient>
<linearGradient id="paint11_linear" x1="659.5" y1="237.5" x2="378.471" y2="-179.318" gradientUnits="userSpaceOnUse">
<stop stop-color="white" stop-opacity="0.12"/>
<stop offset="0.776245" stop-color="white" stop-opacity="0"/>
</linearGradient>
<linearGradient id="paint12_linear" x1="1030.5" y1="104.5" x2="749.471" y2="-312.318" gradientUnits="userSpaceOnUse">
<stop stop-color="white" stop-opacity="0.12"/>
<stop offset="0.776245" stop-color="white" stop-opacity="0"/>
</linearGradient>
<linearGradient id="paint13_linear" x1="1030.5" y1="104.5" x2="749.471" y2="-312.318" gradientUnits="userSpaceOnUse">
<stop stop-color="white" stop-opacity="0.12"/>
<stop offset="0.776245" stop-color="white" stop-opacity="0"/>
</linearGradient>
<linearGradient id="paint14_linear" x1="288.5" y1="370.5" x2="7.4715" y2="-46.3179" gradientUnits="userSpaceOnUse">
<stop stop-color="white" stop-opacity="0.12"/>
<stop offset="0.776245" stop-color="white" stop-opacity="0"/>
</linearGradient>
<linearGradient id="paint15_linear" x1="288.5" y1="370.5" x2="7.4715" y2="-46.3179" gradientUnits="userSpaceOnUse">
<stop stop-color="white" stop-opacity="0.12"/>
<stop offset="0.776245" stop-color="white" stop-opacity="0"/>
</linearGradient>
<clipPath id="clip0">
<rect width="1114" height="399" fill="white"/>
</clipPath>
</defs>
</svg>
