<svg xmlns="http://www.w3.org/2000/svg" viewBox="0 0 813.66 113.24"><defs><style>.cls-1{fill:#1d1d1b;}.cls-2{fill:#f6ca1b;}</style></defs><g id="Capa_2" data-name="Capa 2"><g id="Capa_1-2" data-name="Capa 1"><path class="cls-1" d="M169.54,70.86V63.94A30.75,30.75,0,0,1,172,55.48q3.66-9,9.85-13.22t10.29-4.19a13.19,13.19,0,0,1,6.51,2l-3.84,6.19q-4.89-1.78-9.68,2.88a25.3,25.3,0,0,0-6.64,10.18c-.9,3.26-1.36,9.34-1.36,18.3V97.09h-7.56Z"/><path class="cls-1" d="M203.91,38.28h7.45V65.14q0,9.85,1,13.54a15.12,15.12,0,0,0,6,8.35,18.34,18.34,0,0,0,10.71,3.08,17.89,17.89,0,0,0,10.49-3,15.35,15.35,0,0,0,5.93-7.87q1.14-3.3,1.15-14.11V38.28h7.56V66.56q0,11.91-2.82,17.91a21.33,21.33,0,0,1-8.37,9.4c-3.7,2.24-8.35,3.38-13.94,3.38s-10.32-1.14-14.07-3.38a21,21,0,0,1-8.39-9.51q-2.79-6.1-2.78-18.39Z"/><path class="cls-1" d="M261.56,74.89V65.71q1-11.73,4.94-17.2a24,24,0,0,1,8.65-7.91c2.35-1.51,5.68-2.32,10-2.43a24.71,24.71,0,0,1,8.51,1.58,16.09,16.09,0,0,1,6.65,4.19,31.6,31.6,0,0,1,4.78,7.88,26.62,26.62,0,0,1,5.51-7.88,28.26,28.26,0,0,1,5.31-3.4c1.46-.95,4.86-1.73,10.23-2.37a23.7,23.7,0,0,1,11.48,3,16.6,16.6,0,0,1,7.73,8.43q2.24,5.41,2.23,16.17V97.19h-7.55V65.76c0-6.14-.44-10.39-1.31-12.69a11.45,11.45,0,0,0-4.51-5.59,13.65,13.65,0,0,0-7.72-2.12Q318,45.95,312,53.6c-1.58,2.16-2.76,7-3.56,14.43V97.19H301V67.71q0-10.38-2.31-14.14a19.78,19.78,0,0,0-5.51-6,13.61,13.61,0,0,0-8-2.23A14.87,14.87,0,0,0,276.39,48a17.11,17.11,0,0,0-5.81,7.84q-2.08,5.2-1.68,17V97.19h-7.34Z"/><path class="cls-1" d="M360.8,86a39.84,39.84,0,0,1-5.66-15.49V16h7.35V48.14a31,31,0,0,1,10.44-8.52,28.52,28.52,0,0,1,12.63-2.81,28,28,0,0,1,20.83,8.87,29.63,29.63,0,0,1,8.66,21.5,29.14,29.14,0,0,1-8.71,21.25,28.4,28.4,0,0,1-21,8.82,32.51,32.51,0,0,1-13.2-2.71A33.15,33.15,0,0,1,360.8,86Zm23.93,4.14a22.23,22.23,0,0,0,11.47-3.08,22.82,22.82,0,0,0,8.32-8.51,23.5,23.5,0,0,0,0-23.33,22.59,22.59,0,0,0-8.39-8.65,21.89,21.89,0,0,0-11.25-3.07A23,23,0,0,0,373.3,46.6a21.52,21.52,0,0,0-8.41,8.33A24,24,0,0,0,362,66.72a22.92,22.92,0,0,0,6.62,16.72A21.81,21.81,0,0,0,384.73,90.17Z"/><path class="cls-1" d="M422.92,17.39h7.45v79.8h-7.45Z"/><path class="cls-1" d="M491.33,76.73,497.52,80a32,32,0,0,1-7,9.7,28.38,28.38,0,0,1-9.08,5.59A31.8,31.8,0,0,1,470,97.25q-14.07,0-22-9.21a31.45,31.45,0,0,1-1.21-40.31q8.5-10.92,22.82-10.92,14.65,0,23.45,11.18,6.22,7.86,6.3,19.61H447.74c.14,6.73,2.28,12.21,6.41,16.5a20.27,20.27,0,0,0,15.25,6.44A24.47,24.47,0,0,0,478,89a22.69,22.69,0,0,0,7-4.07A33.93,33.93,0,0,0,491.33,76.73Zm0-15.48a24.47,24.47,0,0,0-4.3-9.47,20.6,20.6,0,0,0-7.51-5.72,22.83,22.83,0,0,0-9.8-2.17,21,21,0,0,0-14.53,5.47q-4.41,4-6.65,11.89Z"/><path class="cls-1" d="M563.74,44.58,559,49.5q-6-5.76-11.59-5.77a8.81,8.81,0,0,0-6.19,2.37,7.34,7.34,0,0,0-2.57,5.61A8,8,0,0,0,540.8,57q2.1,2.69,8.87,6.14c5.54,2.83,9.27,5.57,11.24,8.25a15.29,15.29,0,0,1,2.88,9.06,16.21,16.21,0,0,1-4.95,11.94,16.92,16.92,0,0,1-12.41,4.91,22.22,22.22,0,0,1-9.54-2.13,20,20,0,0,1-7.47-6l4.68-5.29q5.65,6.39,12,6.4a10.69,10.69,0,0,0,7.52-2.86,8.79,8.79,0,0,0,3.12-6.69,8.61,8.61,0,0,0-2-5.67q-2-2.46-9.29-6.19-7.8-3.93-10.6-7.91A14.93,14.93,0,0,1,532,52a14.49,14.49,0,0,1,4.5-10.89,15.58,15.58,0,0,1,11.25-4.33C553,36.81,558.34,39.39,563.74,44.58Z"/><path class="cls-1" d="M599.83,95.19a26.83,26.83,0,0,1-10.29,2.06q-8.49-.48-13.43-8.82a22.06,22.06,0,0,1-2.88-11.54V17.13h7.45V45h13.68v6.34H580.73V75.64c-.21,6,1.8,10.63,6.09,13.89a11.3,11.3,0,0,0,10.69-.46C598.46,91.69,599.22,93.72,599.83,95.19Z"/><path class="cls-1" d="M606.59,38.28H614V65.14q0,9.85,1,13.54a15.12,15.12,0,0,0,6,8.35,18.34,18.34,0,0,0,10.71,3.08,17.89,17.89,0,0,0,10.49-3,15.35,15.35,0,0,0,5.93-7.87q1.14-3.3,1.15-14.11V38.28H657V66.56q0,11.91-2.82,17.91a21.33,21.33,0,0,1-8.37,9.4c-3.7,2.24-8.35,3.38-13.94,3.38s-10.32-1.14-14.07-3.38a21,21,0,0,1-8.39-9.51q-2.79-6.1-2.78-18.39Z"/><path class="cls-1" d="M707.63,94.54a32.5,32.5,0,0,1-13.19,2.71,28.43,28.43,0,0,1-21-8.82,29.13,29.13,0,0,1-8.7-21.25,29.62,29.62,0,0,1,8.65-21.5,28.06,28.06,0,0,1,20.83-8.87,28.5,28.5,0,0,1,12.64,2.81,30.92,30.92,0,0,1,10.44,8.52V16h7.34V70.54A39.52,39.52,0,0,1,719,86,32.84,32.84,0,0,1,707.63,94.54Zm3.59-11.1a22.8,22.8,0,0,0,6.62-16.72,23.71,23.71,0,0,0-2.94-11.79,21.54,21.54,0,0,0-8.39-8.33A23,23,0,0,0,695,43.53a21.79,21.79,0,0,0-11.25,3.07,22.57,22.57,0,0,0-8.41,8.65,23.71,23.71,0,0,0-3.11,11.68,23.22,23.22,0,0,0,3.09,11.65,22.82,22.82,0,0,0,8.32,8.51,22.11,22.11,0,0,0,11.45,3.08A21.81,21.81,0,0,0,711.22,83.44Z"/><path class="cls-1" d="M741.19,16a5.9,5.9,0,0,1,4.31,1.79,5.79,5.79,0,0,1,1.81,4.3,6.18,6.18,0,0,1-6.12,6.14,5.79,5.79,0,0,1-4.3-1.81,5.87,5.87,0,0,1-1.79-4.33,5.77,5.77,0,0,1,1.79-4.3A5.84,5.84,0,0,1,741.19,16Zm-3.68,23.66h7.39V97.19h-7.39Z"/><path class="cls-1" d="M783.7,36.81a28.54,28.54,0,0,1,22,9.61,30.88,30.88,0,0,1-.48,41.84q-8.38,9-21.55,9t-21.59-9a29.91,29.91,0,0,1-8.38-21,30,30,0,0,1,7.93-20.76A28.49,28.49,0,0,1,783.7,36.81Zm0,7.24a21.21,21.21,0,0,0-15.79,6.83,22.76,22.76,0,0,0-6.62,16.46,23.6,23.6,0,0,0,3,11.68,21,21,0,0,0,8.16,8.33,23.17,23.17,0,0,0,22.52,0A21.12,21.12,0,0,0,803.11,79a24,24,0,0,0,3-11.68,22.76,22.76,0,0,0-6.62-16.46A21.19,21.19,0,0,0,783.7,44.05Z"/><path class="cls-2" d="M14,82.22A12.38,12.38,0,0,0,26.34,69.83h0V36A21.63,21.63,0,0,1,69.6,36V69.83a12.4,12.4,0,0,0,24.79,0V55.18A21.45,21.45,0,0,1,108.91,35,56.52,56.52,0,0,0,3.78,76.51,12.18,12.18,0,0,0,14,82.22Z"/><path class="cls-2" d="M103.62,55.18V69.83a21.63,21.63,0,1,1-43.25,0V36a12.4,12.4,0,0,0-24.79,0h0V69.83A21.62,21.62,0,0,1,14,91.46a18.75,18.75,0,0,1-2-.4,56.33,56.33,0,0,0,99.64-47.39A12.35,12.35,0,0,0,103.62,55.18Z"/></g></g></svg>