<svg width="54" height="45" viewBox="0 0 54 45" fill="none" xmlns="http://www.w3.org/2000/svg">
<path d="M49.9055 9.80292H43.8206L43.195 3.718C43.0813 2.6375 42.5695 1.61387 41.7164 0.931447C40.8634 0.249026 39.7829 -0.0921836 38.7024 0.0215532L3.67148 3.77487C1.39674 4.00234 -0.25244 6.0496 0.0319016 8.26747L2.81845 34.825C3.04593 36.9291 4.80885 38.5215 6.91298 38.5215C7.08358 38.5215 7.19732 38.5215 7.36792 38.5215L10.6663 38.1802V40.6824C10.6663 42.9572 12.4861 44.777 14.7608 44.777H49.9055C52.1802 44.777 54 42.9572 54 40.6824V13.9543C54 11.6796 52.1802 9.80292 49.9055 9.80292ZM10.6094 13.9543V34.825L6.96984 35.2231C6.57177 35.28 6.11682 34.9387 6.11682 34.5407L3.33027 7.92626C3.33027 7.64192 3.444 7.47131 3.50087 7.35757C3.55774 7.24384 3.72835 7.1301 4.01269 7.07323L38.9867 3.37679H39.0436C39.2711 3.37679 39.4417 3.49052 39.5554 3.54739C39.6692 3.60426 39.7829 3.77487 39.8398 4.05921L40.4653 9.80292H14.7039C12.4292 9.80292 10.6094 11.6796 10.6094 13.9543ZM50.6448 40.6824C50.6448 41.1374 50.3036 41.4786 49.8486 41.4786H14.7039C14.249 41.4786 13.9078 41.1374 13.9078 40.6824V29.195L20.6183 22.4846C21.3575 21.7453 22.5518 21.7453 23.2911 22.4846L36.7689 35.9624C37.1101 36.3036 37.5082 36.4742 37.9631 36.4742C38.4181 36.4742 38.8161 36.3036 39.1574 35.9624C39.7829 35.3368 39.7829 34.2563 39.1574 33.6308L37.6788 32.1522L41.1477 28.6832C41.2615 28.5695 41.489 28.5695 41.6027 28.6832L50.6448 37.7822V40.6824ZM50.6448 33.0621L43.9343 26.3516C42.5126 24.9299 40.181 24.9299 38.7593 26.3516L35.3472 29.8206L25.6795 20.153C24.7128 19.1862 23.4048 18.6175 21.9831 18.6175C20.5614 18.6175 19.2534 19.1862 18.2867 20.153L13.9078 24.475V13.9543C13.9078 13.4994 14.249 13.1582 14.7039 13.1582H49.8486C50.3036 13.1582 50.6448 13.4994 50.6448 13.9543V33.0621Z" fill="#000000"/>
<path d="M43.0811 22.5414C44.8399 22.5414 46.2657 21.1156 46.2657 19.3568C46.2657 17.598 44.8399 16.1722 43.0811 16.1722C41.3223 16.1722 39.8965 17.598 39.8965 19.3568C39.8965 21.1156 41.3223 22.5414 43.0811 22.5414Z" fill="#f5ca1b"/>
</svg>
